<?xml version="1.0" encoding="utf-8"?>
<!-- Generator: Adobe Illustrator 19.2.1, SVG Export Plug-In . SVG Version: 6.00 Build 0)  -->
<svg version="1.1" id="Layer_2_copy" xmlns="http://www.w3.org/2000/svg" xmlns:xlink="http://www.w3.org/1999/xlink" x="0px"
	 y="0px" viewBox="0 0 546 75" style="enable-background:new 0 0 546 75;" xml:space="preserve">
<style type="text/css">
	.st0{fill:#00BBDE;}
</style>
<rect x="0" class="st0" width="546" height="76.8"/>
<polygon points="539.1,24.7 539.1,36.4 536,36.8 535.6,32.3 534.6,32.5 534.6,33.6 533.7,33.7 533.7,35.1 533.7,37.9 532.6,37.9 
	532.6,38.8 532.6,40.1 529.3,40.1 529.3,39.1 528.3,39.1 528.3,37.9 523.9,37.4 523.9,34.6 522.9,34.7 522.9,41.9 522,41.9 
	522,48.3 517.7,48.7 517.2,39.1 515.9,38.9 515.9,37.9 515.2,37.9 514.8,34.8 513.8,34.8 513.8,36.7 512.5,36.8 512.5,43 
	509.5,43.1 509.5,41.8 508.5,41.9 508.5,37.6 507,37.6 506.6,32.4 506.2,32.1 506.2,49.5 503.3,49.5 503.3,23 500.6,23.1 
	500.6,24.5 499.1,24.5 499.1,23.1 496.7,22.8 496.7,24.8 496.7,38.8 494.9,39.1 495,37.9 493.8,38.1 493.4,33.6 492.2,33.9 
	492.2,32.4 491.5,32.7 491.5,36.5 490.8,36.5 490.4,33.6 489.9,34 489.9,37.1 489.9,38.8 488.5,39.1 488.5,43.1 487.1,43.1 
	487.1,37.9 484.7,37.6 484.7,36.8 483.5,36.8 483.5,37.8 481.9,37.8 481.9,33.7 479.9,33.9 479.9,39.1 476.8,39 476.8,36.8 
	475.6,36.9 475.6,37.7 473.3,37.6 473.3,36.7 471.6,36.7 471.9,45 469.1,44.9 469.1,33.6 468,33.6 467.5,36.7 463.7,37.1 
	463.7,37.7 462.4,37.4 462.4,41.9 459.3,41.9 459.3,37.8 458,37.7 458,33.9 456.9,33.8 456.9,32.3 456,32.5 456,33.7 456,36.8 
	454.7,36.9 454.7,38.8 451.9,38.8 451.9,30.3 450.6,30.1 450.6,27.3 447.6,27.3 447.6,31.2 446.9,31.2 446.9,48.4 443.9,48.5 
	443.9,33.7 441.3,33.9 441.3,41.9 440,41.9 439.6,39 439,39 439,43.1 437.6,43.2 437.6,36.5 435.7,36.5 435.7,33.5 434.4,33.6 
	434.4,36.6 433.6,36.7 433.6,37.9 432.4,38 432.6,39.1 431.1,39.1 431.1,46.7 429,46.8 429,45.4 426.8,45.3 426.8,34.4 425.8,34.2 
	425.8,36.6 424.7,36.5 424.8,34.5 423.6,34.6 423.6,37.6 422.9,37.6 422.9,36.7 421.6,36.8 421.6,37.8 419.6,37.8 419.6,43.1 
	417.2,43.2 417.2,37.9 416.1,37.7 416.1,34.7 415,34.7 415,32.2 414.2,32.2 413.8,32.8 413.8,35.1 413,35.4 413,33.7 412,33.6 
	412,37.9 411.1,38 411.1,39.1 409.8,39.1 409.8,23 408.8,23.1 408.8,24.5 405.3,24.8 405.3,23.9 405,23 404.4,24.5 403.4,24.5 
	403.4,49.5 401.7,49.5 401.7,34.6 401,34.6 401,48.2 400.3,48.2 400.3,31.1 399.3,31.5 399,41.8 397.1,41.9 396.7,43.4 395.2,43.6 
	395.2,37.8 393.5,37.9 393.2,34.6 391.5,34.8 391.5,37.8 388.4,37.9 388.4,32.1 386.1,32.2 385.8,34.8 383.8,34.9 383.4,30 
	382,29.9 382,27.5 381,27.6 381,33.4 379.8,33.6 379.4,36.1 381,36.5 381,43.1 379,43.2 379,39.5 378.3,39.5 378.3,36.6 376.4,36.7 
	376.4,35 375.3,35.1 375.3,36.5 374.4,36.5 374.2,38.2 375.3,38.5 375.3,44.5 374,44.5 374,41.9 369.9,42.2 369.9,40.1 369.9,37 
	369.9,33.5 367.8,33.7 367.8,34.8 367.8,37.6 366.4,37.6 364.6,37.8 364.6,36.5 363.8,36.7 363.2,37.6 363.2,34.8 362.3,34.9 
	362.3,37.8 361.2,37.9 361.2,28.4 359.7,28.4 359.8,26.8 358.2,27 358.2,32.4 355.4,32.5 355.4,31.1 354.6,31.1 354.6,28.3 
	352.7,28.5 352.7,31.5 352.1,31.5 352.1,36.5 350.2,36.6 350.2,33.6 349.3,33.6 349.3,36.8 348,36.7 348,26.8 347.3,26.8 
	346.9,29.9 346,29.9 346,26.9 345.5,27.1 345,43.2 342.6,43 342.6,18.2 342.6,16.5 341.3,16.5 340.8,18.1 338.5,18 338.5,16.5 
	337.5,16.5 337.5,18.5 337.5,32.4 334.4,32.4 334.4,28.2 333.1,28.2 333.1,27.1 330.6,27.3 330.6,31.3 328.9,31.1 328.9,36.5 
	326.6,36.6 326.6,31.6 321.4,31.2 321.4,28.4 320.3,28.4 320.3,38.8 317.3,39.1 317.3,40.1 315.2,40.1 315.2,32.5 313.7,32.5 
	313.7,43.1 311,43.1 311,45.4 308.4,45.4 308.4,33.6 302,33.7 302,45.5 298.9,45.6 298.9,44.3 297.7,44.2 297.7,43 296.5,43.1 
	296.5,44.2 295.5,44.2 295.5,45.6 291.1,45.7 291.1,41.8 289.8,41.9 289.8,42.9 286.9,43 286.9,42 285.7,42.1 285.7,45.5 279,45.6 
	279,44.4 278,44.3 278,43.1 276.9,43 276.9,44.3 273.9,44.3 273.9,43.2 272.8,43.2 272.8,44.2 271.6,44.1 271.6,45.9 211,45.6 
	211,42.2 205.9,42.2 205.9,45.5 204.1,45.6 201.6,45.6 201.6,43.2 199.5,43.2 199.5,45.5 197.6,45.5 197.6,46.5 195,46.5 195,44.5 
	193.9,44.5 193.9,40.1 192.2,40.1 192.2,45.7 191.2,45.9 191.2,46.5 189.9,46.5 189.9,32.5 183.5,32.6 183.5,46.5 181.9,46.5 
	181.9,45.5 180,45.4 180,42 178.7,42.2 178.7,40.1 178.1,40.1 178.1,43.4 176.9,43.3 176.9,46.5 173.7,46.5 173.7,45.5 171.3,45.5 
	171.3,44.4 170.3,44.5 170.3,45.4 168.1,45.5 168.1,43.1 167,43.1 167,34.9 165.8,34.8 165.8,34.1 165.8,32.5 165,32.6 165,33.8 
	163.8,33.7 163.8,40.1 160.8,40.1 160.8,38.9 159.8,39 159.3,31.4 158.4,31.5 158.4,28.1 156.7,28.3 156.7,46.5 154.1,46.5 
	154.1,20.5 152.1,20.6 152.1,21.9 150.1,21.9 150.1,20.7 148.1,20.8 148.1,36.6 146.5,36.6 146.5,33.6 145.8,33.7 145.8,34.8 
	144.7,34.8 144.7,30.7 143.5,30.7 143.5,28.3 142.4,28.5 142.4,32.7 141.4,32.9 141.4,34.6 139.8,34.5 139.8,20.6 132.9,20.8 
	132.9,32.6 131.4,32.6 131.4,31.4 128.9,31.5 128.9,30.2 128.1,30.2 128.1,33.6 127.2,33.5 127.2,31.3 126.7,31.5 126.7,36.8 
	123.9,36.7 123.9,33.7 118.6,33.8 118.6,31.3 117.6,31.4 117.6,36.6 116.4,36.8 116.4,41.8 115.4,41.9 115.4,36.8 114.7,36.8 
	114.7,43.1 113.3,43.1 113.3,44.5 112.2,44.5 111.9,36.6 110.9,36.7 110.9,33.6 108.9,33.6 108.9,32.5 107.8,32.5 107.8,31.4 
	107,31.4 107,33.8 106,33.8 106,39.1 104.1,39.1 104.1,37.8 101.5,37.9 101.5,32.4 101.5,27.3 100.5,27.3 100.5,39.3 99.9,39.3 
	99.9,31.2 99.4,31.2 99.4,44 97,44.1 97,20.5 95.9,20.5 95.9,19.5 95.2,19.5 95.2,20.6 92.5,20.5 92.5,19.5 91.1,19.5 91.1,34.8 
	89.5,34.9 89.5,33.8 88.3,33.8 88.3,30.2 87.1,30.2 87.1,28.4 85.5,28.4 85.5,30.2 84.4,30.2 84.4,33.8 83.3,33.8 83.3,38.8 
	82,38.8 82,32.6 81.3,32.6 81.3,33.4 78.9,33.4 78.9,32.7 77.9,32.8 77.9,33.8 76.4,33.8 76.4,32.7 76.4,31.5 75.6,31.3 75.6,29.8 
	74.6,29.8 74.6,34.8 71.3,35 71.3,32.5 65.2,32.6 65.2,41.9 63.4,42.2 63.4,30 62.4,30 62.4,32.2 61.7,32.2 61.7,30.1 60.9,30.1 
	60.9,32.6 55.4,32.6 55.4,38.7 54,38.7 54,33.5 52.6,33.5 52.6,30.1 51.4,30.1 51.4,27.1 50.6,27 50.6,30.2 48.7,30 48.7,33.8 
	46.3,33.8 46.3,25.1 45.7,25.3 45.7,33.8 45,33.8 45,23.1 40.9,23.1 40.9,33.7 40.3,29.9 40.3,33.6 40.3,44.5 38.8,44.5 38.8,30.2 
	37.8,30.2 37.8,44.3 36.6,44.3 36.6,28.3 35.8,28.3 35.8,37.9 33.4,37.9 33.4,38.8 31.4,38.8 31.4,32.5 30.1,32.5 30.1,31.3 
	29.2,31.3 29.2,32.5 28,32.5 28,33.7 26.8,33.7 26.8,34.8 25.1,34.9 25.1,43.1 23.7,43.1 23.7,42 21.4,42 21.4,41.4 19.7,41.4 
	19.7,30.2 18.5,30.2 18.5,33.9 13.3,33.9 13.3,39.5 10.5,39.5 10.5,33.9 10.5,32.5 10.5,30.1 9.7,30 9.7,28.3 6.7,28.3 6.7,30.2 
	6.7,33.7 5.7,33.7 5.2,34.8 3.9,34.8 3.9,19.2 0,19.2 0,50.2 0,51.2 0,76.5 545.5,76.8 545.5,24.8 "/>
</svg>
